<?xml version="1.0" encoding="utf-8"?>
<!-- Generator: Adobe Illustrator 25.0.1, SVG Export Plug-In . SVG Version: 6.00 Build 0)  -->
<svg version="1.1" id="Layer_1" xmlns="http://www.w3.org/2000/svg" xmlns:xlink="http://www.w3.org/1999/xlink" x="0px" y="0px"
	 viewBox="0 0 595.28 841.89" style="enable-background:new 0 0 595.28 841.89;" xml:space="preserve">
<style type="text/css">
	.st0{fill:#FED8B4;}
	.st1{fill:#010101;}
	.st2{fill-rule:evenodd;clip-rule:evenodd;fill:#E84025;}
	.st3{fill-rule:evenodd;clip-rule:evenodd;fill:#FED8B4;}
	.st4{fill:none;}
	.st5{fill-rule:evenodd;clip-rule:evenodd;fill:#2B2C2B;}
	.st6{fill-rule:evenodd;clip-rule:evenodd;fill:#FEDF58;}
	
		.st7{fill-rule:evenodd;clip-rule:evenodd;fill:none;stroke:#010101;stroke-width:3;stroke-linecap:round;stroke-linejoin:round;stroke-miterlimit:10;}
	.st8{fill:#6DCDE7;}
	.st9{fill:#140E0C;}
</style>
<path class="st0" d="M278.37,308.79l-7.24-13.77c0,0,12.24,6.12,21.41,1.53s1.53-26,1.53-26s7.65-4.59,7.65-7.65
	c0-3.06-10.71-4.59-10.71-4.59v-16.83l-22.94,3.06l-18.35,6.12l-12.24,3.06l-7.65,7.65l-6.12,13.77l3.06,12.24l-3,14.65
	L278.37,308.79z"/>
<path class="st1" d="M296.66,235.25c-0.03-2.87-4.32-6.37-7.17-6.01c-7.3,0.94-11,4.82-24.47,7.65c-15.27,3.21-19.88,1.53-26,4.59
	c-6.12,3.06-7.65,7.65-10.71,16.83c-3.06,9.18-7.65,13.77-9.18,15.3s-3.06,3.06-1.53,6.12c1.53,3.06,4.59,9.18,7.65,9.18
	c3.06,0,4.59-4.59,7.65-4.59c3.06,0,7.65-1.53,7.65-4.59c0-3.06-12.24-6.12-9.18-12.24c3.06-6.12,6.12-10.71,10.71-9.18
	c4.59,1.53,6.12,7.65,10.71,7.65c4.59,0,7.65-1.53,7.65-4.59s3.06-9.18,7.65-10.71c4.59-1.53,10.71-3.06,13.77-3.06
	c3.06,0,9.18-1.53,10.71-3.06C295.6,241.49,296.72,241.12,296.66,235.25z"/>
<polygon class="st2" points="120.38,535.01 123.71,445.39 337.21,517.89 "/>
<path class="st3" d="M412.74,335.78c-6.65-17.52,4.8-33.85-4.82-55.44c-7.56-12.89,8.06-5.1,11.99,1c8.01,53.18,26.45-24.36,43-25.6
	c12.01,3.7-21.65,40.55-17.77,40.5c4.81,3.79,39.83-59.35,42.27-34.26c-5.92,10.32-34.19,40.71-29.39,41.17
	c4.18-1.4,32.46-39.55,38.03-31.32c8.8,4.2-32.46,33.54-27.55,37.15c2.86-1.1,27.57-25.42,30.91-21.7
	c6.9,6.81-35.36,38.77-43.49,53.56C446.84,356.98,423.6,339.16,412.74,335.78z M221.01,298.87c2.37-1.19,54.79,0.86,56.79,5.06
	C287.09,339.09,216.33,309.21,221.01,298.87z M204.18,488.04c18.52,9.67,23.69,12.84,38.25,27.98c19.79,20.57-15.57,3.77-13.14,5.95
	c8.16,7.33,26.34,23.68,30.77,34.47c3.94,17.31-27.13-17.59-25.22-15.08c30.86,40.44,9.49,36.62-9.29,10.16
	c0.46,3.97,20.96,28.03,12.24,27.45c-8.15-0.55-20.82-15.99-22.87-19.33c32.78,53.5-31.13-19.22-36.59-30.08
	C164.93,516.49,197.8,496.98,204.18,488.04z"/>
<polygon class="st4" points="204.7,477.59 216.78,495.42 208.09,503.03 316.61,515.52 "/>
<path class="st2" d="M409.19,310.39l-38.15,50.05c0,0-24.66-22.66-46.66-37.66s-30-16-46.58-18.87c0,0-0.2-0.26,0.25,1.67
	c0.1,0.44,0.1,0.94,0.28,1.79c0.17,0.84,0.26,0.58,0.26,2.35c0,1.77,0.04,1.22-0.79,3.14c-0.83,1.92-2.43,3.17-3.5,4.17
	c-1.08,1-5.1,2.68-8.79,3.18c-3.7,0.5-11.39-0.42-15.37-1.01c-5.22-0.78-14.94-4.57-19.87-9.58c-2.37-2.41-5.79-5.63-6.92-7.8
	c-1.08-2.08,0.8-3.31-2.34-2.96c-10.23,1.12-131.31-3.08-131.31,71.42c0.96,50.43,29.81,95.88,54.08,125.33l64.31,7.41l8.69-7.61
	l-12.08-17.82l111.91,37.93l21.6,2.49l-21.26-94.13c9.06,9.07,11.42,99.91,64.29,56.41c29.13-24.5,77.18-136.67,77.18-136.67
	L409.19,310.39z"/>
<path class="st2" d="M176.98,530.29l4.03-3.54l-9.12-1.05C175.1,528.69,176.98,530.29,176.98,530.29z"/>
<path class="st2" d="M143.78,495.62c11.61,14.09,22.16,24.51,28.12,30.08l9.12,1.05l27.07-23.73L143.78,495.62z"/>
<path class="st5" d="M310.87,408.41c0,0,7.34,6.79,10.84,20.38s16.42,50.88,22.24,54.89c5.82,4.02,2.06,5.72-0.08,5.1
	c-2.15-0.62-14.41-6.51-14.41-6.51L310.87,408.41z"/>
<path class="st5" d="M219.42,389.75c0,0-44.23,0.97-52.58-8.02s-2.21,5.55-2.21,5.55l46.39,98.06l-27.29-76.46
	c0,0-3.61-5.43-0.12-5.5c3.49-0.08,3.49-0.08,3.49-0.08l31.26-8.02L219.42,389.75z"/>
<circle class="st6" cx="464.11" cy="286.72" r="36"/>
<polyline class="st7" points="458.45,269.65 463.94,289.42 477.12,283.93 "/>
<path class="st8" d="M477.61,248.83c0.12-8.65-6.8-15.76-15.45-15.88c-8.65-0.12-15.76,6.8-15.88,15.45
	c-0.01,0.56,0.02,1.12,0.07,1.67l31.15,0.42C477.57,249.95,477.61,249.39,477.61,248.83z"/>
<path class="st9" d="M487.05,323.51l-1.42-9.47l-8.42,5.08l7.67,5.69C485.86,325.54,487.23,324.72,487.05,323.51z"/>
<path class="st9" d="M443.31,314.04l-1.42,9.47c-0.18,1.21,1.19,2.03,2.17,1.3l7.67-5.69L443.31,314.04z"/>
<line class="st9" x1="485.22" y1="314.02" x2="477.21" y2="319.12"/>
</svg>