<?xml version="1.0" encoding="utf-8"?>
<!-- Generator: Adobe Illustrator 25.0.1, SVG Export Plug-In . SVG Version: 6.00 Build 0)  -->
<svg version="1.1" id="Layer_1" xmlns="http://www.w3.org/2000/svg" xmlns:xlink="http://www.w3.org/1999/xlink" x="0px" y="0px"
	 viewBox="0 0 171.83 48.64" style="enable-background:new 0 0 171.83 48.64;" xml:space="preserve">
<style type="text/css">
	.st0{fill:#FFFFFF;}
</style>
<g>
	<path class="st0" d="M43.14,20.65h-18.3V1.96c0-0.97-0.75-1.78-1.73-1.85C14.99-0.48,8.2,1.36,3.98,5.29C1.41,7.68,0,10.71,0,13.83
		v20.81c0,5.71,2.99,9.93,8.64,12.22c4.09,1.65,8.4,1.78,9.62,1.78h24.88c1.03,0,1.86-0.83,1.86-1.86V22.51
		C45,21.48,44.17,20.65,43.14,20.65z M41.28,44.93H18.26c-2.43,0-14.54-0.5-14.54-10.28c0-4.15,2.89-7.12,8.59-8.83
		c4.36-1.31,8.92-1.45,10.67-1.45h18.3V44.93z"/>
	<g>
		<path class="st0" d="M56.75,27.39c0-2.15,0.68-3.95,2.04-5.42c1.36-1.47,3.1-2.2,5.21-2.2c2,0,3.59,0.56,4.77,1.69
			s1.89,2.43,2.11,3.91h-3.42c-0.21-0.8-0.62-1.45-1.25-1.93c-0.63-0.48-1.38-0.73-2.25-0.73c-1.18,0-2.12,0.43-2.83,1.3
			c-0.71,0.87-1.06,1.99-1.06,3.37s0.35,2.5,1.06,3.36c0.71,0.86,1.65,1.29,2.83,1.29c0.88,0,1.63-0.24,2.25-0.73
			c0.62-0.49,1.04-1.13,1.25-1.93h3.42c-0.22,1.48-0.93,2.78-2.11,3.91S66,34.97,64,34.97c-2.11,0-3.85-0.73-5.21-2.2
			C57.43,31.31,56.75,29.51,56.75,27.39z"/>
		<path class="st0" d="M81.53,34.97c-2.24,0-4.06-0.74-5.45-2.21c-1.39-1.47-2.09-3.27-2.09-5.38s0.69-3.91,2.09-5.39
			c1.39-1.48,3.21-2.23,5.45-2.23c2.26,0,4.08,0.74,5.47,2.23c1.39,1.48,2.09,3.28,2.09,5.39s-0.7,3.9-2.09,5.38
			C85.61,34.24,83.78,34.97,81.53,34.97z M77.33,27.39c0,1.38,0.4,2.5,1.19,3.36c0.79,0.86,1.8,1.29,3.01,1.29
			c1.23,0,2.25-0.43,3.04-1.29c0.79-0.86,1.19-1.98,1.19-3.36c0-1.4-0.4-2.53-1.19-3.39c-0.79-0.86-1.81-1.29-3.04-1.29
			c-1.21,0-2.22,0.43-3.01,1.29C77.72,24.86,77.33,25.99,77.33,27.39z"/>
		<path class="st0" d="M98.7,30.69l4.02-10.59h3.44l-5.94,14.53h-3.14l-5.91-14.53h3.53L98.7,30.69z"/>
		<path class="st0" d="M122.49,28.34h-11.06c0.13,1.16,0.55,2.08,1.26,2.76c0.71,0.68,1.64,1.02,2.8,1.02
			c0.76,0,1.46-0.19,2.07-0.56c0.62-0.37,1.05-0.88,1.32-1.51h3.36c-0.45,1.47-1.28,2.66-2.51,3.57c-1.22,0.91-2.66,1.36-4.33,1.36
			c-2.17,0-3.92-0.72-5.25-2.16c-1.33-1.44-2-3.26-2-5.46c0-2.15,0.67-3.95,2.02-5.4s3.08-2.18,5.21-2.18s3.85,0.71,5.17,2.14
			c1.32,1.43,1.97,3.23,1.97,5.39L122.49,28.34z M115.38,22.49c-1.05,0-1.91,0.31-2.6,0.92s-1.12,1.44-1.29,2.46h7.73
			c-0.15-1.03-0.56-1.85-1.23-2.46C117.31,22.79,116.44,22.49,115.38,22.49z"/>
		<path class="st0" d="M134.81,19.99v3.11c-0.26-0.04-0.51-0.06-0.76-0.06c-2.5,0-3.75,1.34-3.75,4.03v7.56h-3.33V20.11h3.08v2.02
			c0.82-1.44,2.25-2.16,4.28-2.16L134.81,19.99z"/>
		<path class="st0" d="M141.95,34.64h-3.33v-21h3.33V34.64z"/>
		<path class="st0" d="M160.77,28.34h-11.06c0.13,1.16,0.55,2.08,1.26,2.76c0.71,0.68,1.64,1.02,2.8,1.02
			c0.76,0,1.46-0.19,2.07-0.56c0.62-0.37,1.05-0.88,1.32-1.51h3.36c-0.45,1.47-1.28,2.66-2.51,3.57c-1.22,0.91-2.66,1.36-4.33,1.36
			c-2.17,0-3.92-0.72-5.25-2.16c-1.33-1.44-2-3.26-2-5.46c0-2.15,0.67-3.95,2.02-5.4s3.08-2.18,5.21-2.18s3.85,0.71,5.17,2.14
			c1.32,1.43,1.97,3.23,1.97,5.39L160.77,28.34z M153.65,22.49c-1.05,0-1.91,0.31-2.6,0.92s-1.12,1.44-1.29,2.46h7.73
			c-0.15-1.03-0.56-1.85-1.23-2.46C155.59,22.79,154.72,22.49,153.65,22.49z"/>
		<path class="st0" d="M171.77,31.67v2.88c-0.41,0.11-0.99,0.17-1.74,0.17c-2.84,0-4.26-1.43-4.26-4.28v-7.67h-2.21v-2.66h2.21
			v-3.78h3.33v3.78h2.72v2.66h-2.72v7.34c0,1.14,0.54,1.71,1.62,1.71L171.77,31.67z"/>
	</g>
</g>
</svg>
