<?xml version="1.0" encoding="utf-8"?>
<!-- Generator: Adobe Illustrator 24.1.2, SVG Export Plug-In . SVG Version: 6.00 Build 0)  -->
<svg version="1.1" id="Layer_1" xmlns="http://www.w3.org/2000/svg" xmlns:xlink="http://www.w3.org/1999/xlink" x="0px" y="0px"
	 viewBox="0 0 30 30" style="enable-background:new 0 0 30 30;" xml:space="preserve">
<g>
	<path d="M15,0C6.7,0,0,6.7,0,15c0,8.3,6.7,15,15,15s15-6.7,15-15C30,6.7,23.3,0,15,0z M15,27.3C8.2,27.3,2.7,21.8,2.7,15
		S8.2,2.7,15,2.7S27.3,8.2,27.3,15C27.3,21.8,21.8,27.3,15,27.3z"/>
	<path d="M15,11.8c-0.8,0-1.4,0.6-1.4,1.4v9.1c0,0.8,0.6,1.4,1.4,1.4s1.4-0.6,1.4-1.4v-9.1C16.4,12.4,15.8,11.8,15,11.8z"/>
	<path d="M15,6.4c-0.4,0-0.7,0.1-1,0.4c-0.3,0.3-0.4,0.6-0.4,1c0,0.4,0.1,0.7,0.4,1c0.3,0.3,0.6,0.4,1,0.4s0.7-0.1,1-0.4
		c0.3-0.3,0.4-0.6,0.4-1c0-0.4-0.1-0.7-0.4-1C15.7,6.5,15.4,6.4,15,6.4z"/>
</g>
</svg>
