<?xml version="1.0" encoding="UTF-8"?>
<svg xmlns="http://www.w3.org/2000/svg" id="i-matic-logo" viewBox="0 0 42 32"><g fill="none" fill-rule="evenodd"><path fill="#2BBDF7" d="M15.701 13.193l4.464 9.9 6.644-3.83.005-.002v-7.666z"></path><path fill="#2891F9" d="M35.394 5.847l-4.147-1.562-4.432-.358V27.75l6.649 3.832 5.248-10.74-3.31-10.385z"></path><path fill="#2BBDF7" d="M35.005 3.929l-1.54 3.831h-.002v23.82l6.65-3.831V3.929z"></path><path fill="#2B6DEF" d="M33.464.095l-6.65 3.834 6.65 3.833 6.65-3.833z"></path><path fill="#2891F9" d="M20.168 15.424v-.002l-6.649-7.44L.22 3.926v23.82l6.648 3.833 1.9-13.182 4.751.863v-.004l6.65 3.832v-7.664z"></path><path fill="#2B6DEF" d="M6.87.094L.218 3.927l19.946 11.502 3.014-1.737 3.635-2.097z"></path><path fill="#2BBDF7" d="M6.87 15.425h-.001v16.154l6.65-3.832v-8.489z"></path></g></svg>