<?xml version="1.0" encoding="utf-8"?>
<!-- Generator: Adobe Illustrator 25.0.1, SVG Export Plug-In . SVG Version: 6.00 Build 0)  -->
<svg version="1.1" id="Layer_1" xmlns="http://www.w3.org/2000/svg" xmlns:xlink="http://www.w3.org/1999/xlink" x="0px" y="0px"
	 viewBox="0 0 595.28 841.89" style="enable-background:new 0 0 595.28 841.89;" xml:space="preserve">
<style type="text/css">
	.st0{fill:#FED8B4;}
	.st1{fill:#010101;}
	.st2{fill:#A6CF49;}
	.st3{fill:#FFFFFF;}
	.st4{fill:#090909;}
	.st5{fill:#2A2929;}
	.st6{fill:#8F8F8F;}
	.st7{fill:#62C8F2;}
	.st8{fill:url(#SVGID_1_);}
	.st9{fill:#FDFEFF;}
</style>
<path class="st0" d="M470.06,310.6l-10.61-20.17c0,0-11.58,9.24-21.92,5.17c-10.34-4.07-6.27-30.94-6.27-30.94s-8.76-4.31-9.31-7.98
	c-0.55-3.67,10.27-7.17,10.27-7.17l-3.03-20.18l24.34,0.09l20.13,4.48l13.24,1.76l9.31,7.98l8.82,15.56l-0.97,15.15l-0.01,4.07
	c-1.17-0.13,15.44,36.86-14.97,48.5C458.66,338.55,470.06,310.6,470.06,310.6z"/>
<path class="st1" d="M422.21,222.74c-0.49-3.45,3.33-8.32,6.36-8.32c7.74-0.01,12.27,4.06,26.75,5.36
	c16.4,1.47,20.89-1.26,27.78,1.45s9.31,7.98,14.13,18.51c4.83,10.53,10.41,15.32,12.27,16.91c1.86,1.6,3.72,3.19,2.69,7.1
	c-1.03,3.91-3.1,11.72-6.27,12.2c-3.17,0.48-5.58-4.79-8.76-4.31c-3.17,0.48-8.2-0.64-8.76-4.31c-0.55-3.67,11.58-9.24,7.31-16.1
	c-4.27-6.86-8.27-11.89-12.75-9.34S478,252,473.24,252.72c-4.76,0.71-8.2-0.64-8.76-4.31c-0.55-3.67-4.83-10.53-9.86-11.65
	c-5.03-1.12-11.65-2-14.82-1.52c-3.17,0.48-9.79-0.4-11.65-2C424.43,230.04,423.21,229.78,422.21,222.74z"/>
<polygon class="st2" points="228.58,577.97 233,550.8 238.43,499.91 172.28,507.12 146.92,569.92 152.56,561.09 "/>
<polygon class="st3" points="225.68,595.78 228.58,577.97 152.56,561.09 146.92,569.92 139.81,587.51 "/>
<polygon class="st4" points="141.47,588.26 154.9,590.04 196.58,536.18 238.07,548.4 260.32,433.05 "/>
<path class="st5" d="M496.67,376.69l-132.7,59.54c0,0-45.57-94.11-97.24-98.02c-45.16-3.42-125.57,73.95-170.68,166.96l96.55,31.52
	c24.37-30.4,49.94-63.57,53.42-73.07c6.88-18.74,28.05,133.3,135.55,148.64c107.5,15.34,142.14-161.4,142.14-161.4L496.67,376.69z"
	/>
<polygon class="st6" points="286.12,368.78 344.24,432.47 371.24,357.6 330.54,333.96 "/>
<polygon class="st7" points="280.32,306.27 287.24,370.32 330.61,334.77 327.91,298.56 "/>
<path class="st0" d="M376.24,446.54l-11.42-19.05c0,0-8.48-16.2-19.9-18.1c-11.42-1.91-20.27-1.27-16.95-6.99
	c3.32-5.72,18.43-4.76,18.43-4.76l-14.37-3.81c0,0-6.26-7.62,4.05-7.3c10.32,0.32,20.27,4.13,20.27,4.13l-20.27-11.43
	c0,0-9.21-9.21,3.69-6.67s20.64,7.3,20.64,7.3l-22.48-11.12c0,0-6.63-8.26,3.32-6.67c9.95,1.59,28.37,1.27,37.22,11.75
	c8.84,10.48,9.95,26.68,9.95,26.68l2.95,29.54L376.24,446.54z"/>
<linearGradient id="SVGID_1_" gradientUnits="userSpaceOnUse" x1="362.806" y1="384.6309" x2="539.4174" y2="384.6309">
	<stop  offset="0.0391" style="stop-color:#C2D834"/>
	<stop  offset="1" style="stop-color:#98CA3C"/>
</linearGradient>
<path class="st8" d="M460.91,292.73l44.07-11.9c0,0,61.55,90.34,20.1,198.21l-33.42-8.55l5.42-52.5c0,0-54.81,154.56-134.26,5.8
	c0,0,17.83-67.64,36.77-56.16c18.94,11.48,13.97,20.92,13.97,20.92s38.38-72.37,44.25-78.77
	C463.67,303.37,460.91,292.73,460.91,292.73z"/>
<path class="st2" d="M194.9,533.32L98.35,501.8c-6.5,13.41-12.27,27.14-17.1,41l-1.24,1.81l88.54,21.15
	C176.27,556.37,185.49,545.05,194.9,533.32z"/>
<path class="st9" d="M32.28,565.67c-2.8,6.27-1.94,8.54-1.94,8.54l118.28,15.64c0,0,8.22-9.81,19.94-24.09l-88.54-21.15l-3.1,4.53
	C76.91,549.13,35.08,559.4,32.28,565.67z"/>
</svg>
