<?xml version="1.0" encoding="utf-8"?>
<!-- Generator: Adobe Illustrator 25.0.1, SVG Export Plug-In . SVG Version: 6.00 Build 0)  -->
<svg version="1.1" id="Layer_1" xmlns="http://www.w3.org/2000/svg" xmlns:xlink="http://www.w3.org/1999/xlink" x="0px" y="0px"
	 viewBox="0 0 595.28 841.89" style="enable-background:new 0 0 595.28 841.89;" xml:space="preserve">
<style type="text/css">
	.st0{fill:#FED8B4;}
	.st1{fill:#FFFFFF;}
	.st2{fill-rule:evenodd;clip-rule:evenodd;fill:#FED8B4;}
	.st3{fill:#010101;}
	.st4{fill:#FFCE41;}
	.st5{fill:url(#SVGID_1_);}
</style>
<g>
	<path class="st0" d="M50,505.92c0,0,33.56,0.23,48.16,15.58c10.78,11.34-25.5,41.08-25.5,41.08h-42.2l-0.04,15
		c0,0-2.03,12.11-6.92-11.75c-0.46-2.24-2.35-7.92,1.59-8.73c8.14-1.66,14.22-4.64,16.41-10.11C44.33,539.92,50,505.92,50,505.92z"
		/>
	<path class="st1" d="M184.57,709.9l-67.99,60.91c0,0-5.67,1.42-5.67-7.08c0-7.38,11.75-16.91,13.91-29.49l51.26-51.26
		C180.25,696.46,184.57,709.9,184.57,709.9z"/>
	<path class="st0" d="M125.07,728.32c-1.42-15.58-14.17-39.66-14.17-39.66l-9.92-28.33l63.74-26.91c0,0,1.42,14.17,4.25,25.5
		c1.18,4.73,4.1,14.41,7.09,24.07l-51.26,51.26C125.15,732.34,125.26,730.37,125.07,728.32z"/>
	<path class="st1" d="M297.79,539.32c0.03,0.09,0.06,0.19,0.1,0.27c2.83,5.67,28.33,11.33,29.75,14.17s2.83,7.08,2.83,7.08H229.9
		c0,0-1.79-15.25-1.1-25.76L297.79,539.32z"/>
	<path class="st0" d="M229.9,530.25c2.83-8.5-1.42-25.5-1.42-25.5h76.49c0,0-9.63,30.29-7.18,36.56l-68.99-4.25
		C228.98,534.38,229.32,531.99,229.9,530.25z"/>
	<path class="st2" d="M364.98,263.75c9.99-23.46,13.31-30.06,29.84-49.16c22.45-25.95,5.3,18.72,7.66,15.56
		c7.93-10.6,25.63-34.23,37.77-40.56c19.67-6.3-18.57,34.67-15.8,32.12c44.63-41.19,41.56-14.73,12.26,10.48
		c4.54-0.91,30.97-28.02,30.84-17.3c-0.12,10.02-17.12,26.82-20.83,29.61c59.54-44.65-20.2,39.7-32.35,47.3
		C400.15,309.31,375.66,270.79,364.98,263.75z"/>
	<path class="st0" d="M204.53,313.55l-14.89-7.92c0,0,12.66-0.99,17.79-9.01c5.13-8.03-11.16-21.38-11.16-21.38s3.91-7.3,2.45-9.73
		s-10.72,1.47-10.72,1.47l-8.01-13.36L163.17,267l-11.71,13.63l-8.29,8.28l-2.45,9.73l1.68,13.86l8.26,8.26l2.05,2.35
		c0.74-0.71-14.58,9.06-20.9,14.87c-2.59,2.38,28.67,14.97,55.59,5.05s45.33-28.33,45.33-28.33s4.25-2.83,0-2.83
		C228.48,311.86,204.53,313.55,204.53,313.55z"/>
	<path class="st3" d="M181.52,245.96c-1.39-2.27-6.48-3-8.58-1.34c-5.37,4.24-6.47,9.08-15.86,17.77
		c-10.63,9.84-15.11,10.71-18.53,16.07c-3.42,5.35-2.45,9.73-0.52,18.48c1.93,8.75,0.46,14.59-0.03,16.53
		c-0.49,1.95-0.98,3.89,1.7,5.59c2.68,1.7,8.03,5.1,10.46,3.64s1.47-5.84,3.91-7.3c2.44-1.46,5.36-4.87,3.91-7.3
		c-1.46-2.43-12.66,0.99-13.14-5.33s-0.22-11.43,4.16-12.4c4.38-0.98,8.52,3.15,12.17,0.96s5.36-4.87,3.91-7.3
		c-1.46-2.43-1.93-8.75,0.99-12.16s7.07-7.54,9.51-9.01s6.58-5.6,7.07-7.54C183.65,251.42,184.37,250.6,181.52,245.96z"/>
	<path class="st4" d="M377.93,238.91c0,0-42.5,60.91-145.9,73.66c-25.5,26.91-57.29,42.46-99.16,24.08
		c-66.58,41.08-83.58,168.57-83.58,168.57l56.66,18.42c0,0-10.51-16.28,1.83-39.31s25.09-86.77,25.09-86.77v63.74l70.83-4.25
		l51-38.25l-18.41-28.33c0,0,110.49-2.83,179.9-99.16L377.93,238.91z"/>
	
		<linearGradient id="SVGID_1_" gradientUnits="userSpaceOnUse" x1="172.251" y1="329.3435" x2="294.7896" y2="511.1591" gradientTransform="matrix(-1 0 0 1 496.7972 0)">
		<stop  offset="0.0391" style="stop-color:#C2D834"/>
		<stop  offset="1" style="stop-color:#98CA3C"/>
	</linearGradient>
	<path class="st5" d="M211.48,521.51l104.82-8.5c0,0,38.25-201.15,1.42-186.98c-36.83,14.17-72.24,79.33-80.74,97.74
		c-37.54,41.79-101.99,26.91-101.99,26.91s-60.2,67.29-75.08,106.24c-4.96,9.21,10.62,105.53,12.75,121.82
		s103.41-39.66,103.41-39.66l-24.08-77.91l65.96-60.31L211.48,521.51z"/>
	<g>
		<path class="st1" d="M560.41,318.57c3.38-4.9,6.7-10.18,10.63-14.96c3.81-4.64,3-7.13-1.84-10.45
			c-48.56-33.29-96.94-66.84-145.45-100.2c-4.22-2.9-5.47-5.49-3.66-10.86c9.98-29.63,0.31-63.03-23.06-81.65
			c-38.51-30.68-91.9-19.97-115.13,23.45c-8.62,16.12-12.06,32.18-8.04,49c0.01,0.03,1.12,12.56,11.6,27.04
			c8.96,11.82,18.8,19.42,30.21,25.33c29.18,15.12,59.98,8.44,83.97-13.95c0.48-0.44,1.19-0.51,1.73-0.14
			c10.82,7.41,21.83,14.96,32.94,22.57l-38.54,55.88l42.34,28.03l14.86-22.1l-17.17-12.4l23-32.63c23.32,16,59.77,41.25,59.77,41.25
			l-21.85,33.58l-17.88-11.35L463.82,336l41.74,28.92l37.6-56.5c5.14,3.52,10.26,7.03,15.33,10.5
			C559.11,319.36,559.97,319.2,560.41,318.57z M313.34,189.08c-17.01-19.6-14.87-49.59,4.74-66.57
			c19.26-16.68,49.57-14.6,66.12,4.54c16.98,19.64,15.1,49.85-4.17,66.78C360.8,210.73,330.24,208.56,313.34,189.08z"/>
		
			<rect x="466.24" y="274.71" transform="matrix(0.5709 -0.821 0.821 0.5709 -32.439 515.8634)" class="st1" width="22.18" height="28.52"/>
	</g>
</g>
</svg>
