<?xml version="1.0" encoding="UTF-8" standalone="no"?>
<svg
   xmlns:dc="http://purl.org/dc/elements/1.1/"
   xmlns:cc="http://creativecommons.org/ns#"
   xmlns:rdf="http://www.w3.org/1999/02/22-rdf-syntax-ns#"
   xmlns:svg="http://www.w3.org/2000/svg"
   xmlns="http://www.w3.org/2000/svg"
   xml:space="preserve"
   style="enable-background:new 0 0 36 36;"
   viewBox="0 0 36 36"
   y="0px"
   x="0px"
   id="Layer_1"
   version="1.1"><metadata
   id="metadata3765"><rdf:RDF><cc:Work
       rdf:about=""><dc:format>image/svg+xml</dc:format><dc:type
         rdf:resource="http://purl.org/dc/dcmitype/StillImage" /><dc:title></dc:title></cc:Work></rdf:RDF></metadata><defs
   id="defs3763" />
<path
   id="path3740"
   d="M12.7,6.9H6.4C5.8,6.9,5.4,7.4,5.4,8S5.8,9,6.4,9h6.3c0.6,0,1.1-0.5,1.1-1.1S13.3,6.9,12.7,6.9z" />
<path
   id="path3742"
   d="M12.7,11.2H6.4c-0.6,0-1.1,0.5-1.1,1.1s0.5,1.1,1.1,1.1h6.3c0.6,0,1.1-0.5,1.1-1.1S13.3,11.2,12.7,11.2z" />
<path
   id="path3744"
   d="M12.7,15.4H6.4c-0.6,0-1.1,0.5-1.1,1.1s0.5,1.1,1.1,1.1h6.3c0.6,0,1.1-0.5,1.1-1.1S13.3,15.4,12.7,15.4z" />
<path
   id="path3746"
   d="M12.7,19.6H6.4c-0.6,0-1.1,0.5-1.1,1.1s0.5,1.1,1.1,1.1h6.3c0.6,0,1.1-0.5,1.1-1.1S13.3,19.6,12.7,19.6z" />
<path
   id="path3748"
   d="M12.7,23.9H6.4c-0.6,0-1.1,0.5-1.1,1.1c0,0.6,0.5,1.1,1.1,1.1h6.3c0.6,0,1.1-0.5,1.1-1.1C13.8,24.4,13.3,23.9,12.7,23.9z" />
<path
   id="path3750"
   d="M16.3,9h6.3c0.6,0,1.1-0.5,1.1-1.1s-0.5-1.1-1.1-1.1h-6.3c-0.6,0-1.1,0.5-1.1,1.1S15.7,9,16.3,9z" />
<path
   id="path3752"
   d="M16.3,13.3h6.3c0.6,0,1.1-0.5,1.1-1.1s-0.5-1.1-1.1-1.1h-6.3c-0.6,0-1.1,0.5-1.1,1.1S15.7,13.3,16.3,13.3z" />
<path
   id="path3754"
   d="M20.3,16.4c0-0.6-0.5-1.1-1.1-1.1h-3c-0.6,0-1.1,0.5-1.1,1.1s0.5,1.1,1.1,1.1h3C19.9,17.5,20.3,17,20.3,16.4z" />
<path
   id="path3756"
   d="M30.3,24.3c-0.5-0.4-1.1-0.3-1.5,0.2l-2.7,3.4l-1.7-1.2c-0.5-0.3-1.1-0.2-1.5,0.2c-0.3,0.5-0.2,1.1,0.2,1.5l2.5,1.8  c0.2,0.1,0.4,0.2,0.6,0.2c0.3,0,0.6-0.1,0.8-0.4l3.3-4.2C30.9,25.4,30.8,24.7,30.3,24.3z" />
<path
   id="path3758"
   d="M 33,21.1 C 31.6,19.7 29.9,18.8 27.9,18.6 V 4.2 C 27.9,1.9 26,0 23.7,0 H 5.3 C 2.9,0 1,1.9 1,4.2 V 28.6 C 1,30.9 2.9,32.8 5.2,32.8 H 20 C 21.7,34.8 24.1,35.9 26.7,35.9 31.5,35.9 35.5,32 35.5,27.1 35.5,24.9 34.6,22.7 33,21.1 Z M 3.1,28.7 V 4.2 C 3.1,3 4.1,2.1 5.2,2.1 H 23.6 C 24.8,2.1 25.7,3.1 25.7,4.2 V 18.5 C 21.4,19 18,22.7 18,27.2 18,28.5 18.3,29.7 18.8,30.8 H 5.3 C 4.1,30.8 3.1,29.9 3.1,28.7 Z M 26.8,33.9 C 24.7,33.9 22.8,32.9 21.5,31.2 20.6,30 20.2,28.7 20.2,27.2 20.2,23.5 23.2,20.5 26.9,20.5 26.9,20.5 27,20.5 27,20.5 V 20.5 C 28.8,20.5 30.4,21.2 31.6,22.5 32.8,23.8 33.5,25.4 33.5,27.2 33.4,30.9 30.4,33.9 26.8,33.9 Z" />
</svg>