<?xml version="1.0" encoding="utf-8"?>
<!-- Generator: Adobe Illustrator 25.0.1, SVG Export Plug-In . SVG Version: 6.00 Build 0)  -->
<svg version="1.1" id="Layer_1" xmlns="http://www.w3.org/2000/svg" xmlns:xlink="http://www.w3.org/1999/xlink" x="0px" y="0px"
	 viewBox="0 0 529.56 284.04" style="enable-background:new 0 0 529.56 284.04;" xml:space="preserve">
<style type="text/css">
	.st0{fill:#88BB40;}
	.st1{fill:#5A9F44;}
	.st2{fill-rule:evenodd;clip-rule:evenodd;fill:#88BB40;}
	.st3{fill:#FFFFFF;}
</style>
<path class="st0" d="M199.66,48.42c0,0-3.98,17.08,4.66,39.02l0.19,0.09C246.4,47.06,213.16,0,213.16,0
	c-9.2,15.83-36.7,27.54-31.06,58.35c1.56,9.25,6.51,17.6,13.89,23.4C194.86,78.51,189.95,63.11,199.66,48.42"/>
<path class="st0" d="M252.95,207.33c-19.83-12.98-33.18-33.81-36.7-57.25c-3.28-23.55,4.2-47.18,21.61-68.49
	c76.6,33.73,101.56,6.02,127.79-14.51c0.44,0.22,11.21-9.65,11.83-10.25c5.12-4.82,9.9-9.99,14.29-15.48
	c1.21-1.54,1.85-2.43,1.85-2.43c-35.78-6.75-76.05-50.5-130.09-19.43c-18.51,10.63-30.21,27.03-34.65,41.62
	c4.27-3.43,21.51-16.55,45.67-17.31c3.07-0.13,6.15-0.04,9.2,0.28c-0.07,0.01-0.11,0.03-0.18,0.04c-1.06,0.22-2.12,0.47-3.18,0.73
	c-1.89,0.43-3.79,0.93-5.68,1.47c-16.78,4.79-34.63,12.4-45.39,24.27c-0.1,0.1-0.21,0.18-0.29,0.28
	c-26.68,31.39-29.01,61.42-26.26,81.09c4.06,27.29,19.56,51.55,42.63,66.7c5.67,3.65,11.7,6.68,17.96,9.04l6.09-12.35
	C263.49,213.3,257.91,210.64,252.95,207.33z"/>
<path class="st1" d="M252.95,207.33c-19.83-12.98-33.18-33.81-36.7-57.25c-3.28-23.55,4.2-47.18,21.61-68.49
	c76.6,33.73,101.56,6.02,127.79-14.51c0.44,0.22,11.21-9.65,11.83-10.25c5.12-4.82,9.9-9.99,14.29-15.48
	c1.21-1.54,1.85-2.43,1.85-2.43c-55.94-2.17-65.21-1.93-110.05,5.2c-1.06,0.17-2.12,0.47-3.18,0.73c-1.89,0.43-3.79,0.93-5.68,1.47
	c-16.78,4.79-34.63,12.4-45.39,24.27c-0.1,0.1-0.21,0.18-0.29,0.28c-26.68,31.39-29.01,61.42-26.26,81.09
	c4.06,27.29,19.56,51.55,42.63,66.7c5.67,3.65,11.7,6.68,17.96,9.04l6.09-12.35C263.49,213.3,257.91,210.64,252.95,207.33z"/>
<path class="st2" d="M274.18,164.67c0,0,35.07,12.23,23.07,46.64c-11.9,34.12-44,18.22-51.78-6.77
	C237.41,179.13,251.15,159.14,274.18,164.67L274.18,164.67z"/>
<g>
	<path class="st3" d="M105.84,244.62H75.42l-23.94-48.42h-25.2v48.42H0v-127.8h57.96c13.56,0,24.06,3.66,31.5,10.98
		c7.44,7.32,11.16,16.98,11.16,28.98c0,8.64-1.95,16.14-5.85,22.5c-3.9,6.36-9.51,11.04-16.83,14.04L105.84,244.62z M70.2,168.04
		c2.76-2.7,4.14-6.45,4.14-11.25c0-4.8-1.41-8.64-4.23-11.52c-2.82-2.88-6.87-4.32-12.15-4.32H26.28v31.14h31.68
		C63.36,172.08,67.44,170.73,70.2,168.04z"/>
	<path class="st3" d="M207.36,204.84h-68.4c0.84,6.48,3.24,11.43,7.2,14.85c3.96,3.42,9.18,5.13,15.66,5.13
		c4.08,0,7.77-0.87,11.07-2.61c3.3-1.74,5.67-4.29,7.11-7.65h25.74c-2.76,9.6-8.19,17.37-16.29,23.31
		c-8.1,5.94-17.55,8.91-28.35,8.91c-13.92,0-25.32-4.62-34.2-13.86c-8.88-9.24-13.32-21.12-13.32-35.64
		c0-14.04,4.44-25.74,13.32-35.1c8.88-9.36,20.22-14.04,34.02-14.04c13.8,0,25.05,4.65,33.75,13.95c8.7,9.3,13.05,21.03,13.05,35.19
		L207.36,204.84z M160.74,168.66c-5.76,0-10.5,1.59-14.22,4.77c-3.72,3.18-6.12,7.53-7.2,13.05h42.84c-0.96-5.4-3.3-9.72-7.02-12.96
		C171.42,170.29,166.62,168.66,160.74,168.66z"/>
	<path class="st3" d="M291.6,161.83V150.3h23.58v90.72c0,12.6-4.08,22.92-12.24,30.96c-8.16,8.04-19.26,12.06-33.3,12.06
		c-13.32,0-23.67-3.54-31.05-10.62c-7.38-7.08-11.49-15-12.33-23.76h25.56c1.68,8.28,7.74,12.42,18.18,12.42
		c6.36,0,11.22-1.62,14.58-4.86c3.36-3.24,5.04-7.74,5.04-13.5v-13.14c-6.12,8.16-15.3,12.24-27.54,12.24
		c-12.84,0-23.22-4.53-31.14-13.59c-7.92-9.06-11.88-20.31-11.88-33.75c0-13.44,3.96-24.69,11.88-33.75
		c7.92-9.06,18.3-13.59,31.14-13.59C275.52,148.14,285.36,152.71,291.6,161.83z M284.04,213.48c4.2-4.56,6.3-10.56,6.3-18
		c0-7.44-2.1-13.44-6.3-18c-4.2-4.56-9.72-6.84-16.56-6.84c-6.84,0-12.36,2.28-16.56,6.84c-4.2,4.56-6.3,10.56-6.3,18
		c0,7.44,2.1,13.44,6.3,18c4.2,4.56,9.72,6.84,16.56,6.84C274.32,220.33,279.84,218.05,284.04,213.48z"/>
	<path class="st3" d="M425.52,204.84h-68.4c0.84,6.48,3.24,11.43,7.2,14.85c3.96,3.42,9.18,5.13,15.66,5.13
		c4.08,0,7.77-0.87,11.07-2.61c3.3-1.74,5.67-4.29,7.11-7.65h25.74c-2.76,9.6-8.19,17.37-16.29,23.31
		c-8.1,5.94-17.55,8.91-28.35,8.91c-13.92,0-25.32-4.62-34.2-13.86c-8.88-9.24-13.32-21.12-13.32-35.64
		c0-14.04,4.44-25.74,13.32-35.1c8.88-9.36,20.22-14.04,34.02-14.04c13.8,0,25.05,4.65,33.75,13.95c8.7,9.3,13.05,21.03,13.05,35.19
		L425.52,204.84z M378.9,168.66c-5.76,0-10.5,1.59-14.22,4.77c-3.72,3.18-6.12,7.53-7.2,13.05h42.84c-0.96-5.4-3.3-9.72-7.02-12.96
		C389.58,170.29,384.78,168.66,378.9,168.66z"/>
	<path class="st3" d="M466.74,150.3v11.52c4.92-9.12,14.28-13.68,28.08-13.68c11.16,0,19.74,3.39,25.74,10.17
		c6,6.78,9,15.93,9,27.45v58.86H504v-55.98c0-12.36-5.34-18.54-16.02-18.54c-6.12,0-10.86,1.83-14.22,5.49
		c-3.36,3.66-5.04,8.67-5.04,15.03v54h-25.56V150.3H466.74z"/>
</g>
</svg>
